<svg xmlns="http://www.w3.org/2000/svg" xmlns:xlink="http://www.w3.org/1999/xlink" width="500" zoomAndPan="magnify" viewBox="0 0 375 374.999991" height="500" preserveAspectRatio="xMidYMid meet" version="1.0"><defs><g/><clipPath id="3f539359c9"><path d="M 0 0 L 371.429688 0 L 371.429688 371.429688 L 0 371.429688 Z M 0 0 " clip-rule="nonzero"/></clipPath><clipPath id="04c78de8cc"><path d="M 185.714844 0 C 83.148438 0 0 83.148438 0 185.714844 C 0 288.28125 83.148438 371.429688 185.714844 371.429688 C 288.28125 371.429688 371.429688 288.28125 371.429688 185.714844 C 371.429688 83.148438 288.28125 0 185.714844 0 Z M 185.714844 0 " clip-rule="nonzero"/></clipPath><clipPath id="9cb14f23cf"><path d="M 54 57 L 173 57 L 173 194 L 54 194 Z M 54 57 " clip-rule="nonzero"/></clipPath><clipPath id="bb9cb5a957"><path d="M 180.417969 182.027344 L 55.726562 193.835938 L 43.921875 69.144531 L 168.613281 57.335938 Z M 180.417969 182.027344 " clip-rule="nonzero"/></clipPath><clipPath id="14eb022ecc"><path d="M 180.417969 182.027344 L 55.726562 193.835938 L 43.921875 69.144531 L 168.613281 57.335938 Z M 180.417969 182.027344 " clip-rule="nonzero"/></clipPath></defs><g clip-path="url(#3f539359c9)"><g clip-path="url(#04c78de8cc)"><path fill="#247ef5" d="M 0 0 L 371.429688 0 L 371.429688 371.429688 L 0 371.429688 Z M 0 0 " fill-opacity="1" fill-rule="nonzero"/></g></g><g fill="#ffffff" fill-opacity="1"><g transform="translate(63.597694, 372.32812)"><g><path d="M 138.671875 -278.203125 C 175.035156 -278.203125 202.585938 -269.179688 221.328125 -251.140625 C 240.078125 -233.097656 249.453125 -209.421875 249.453125 -180.109375 C 249.453125 -150.796875 239.9375 -127.191406 220.90625 -109.296875 C 201.882812 -91.398438 174.332031 -82.453125 138.25 -82.453125 L 97.671875 -82.453125 L 97.671875 -12.265625 C 97.671875 -7.472656 96.613281 -4.226562 94.5 -2.53125 C 92.382812 -0.84375 89.351562 0 85.40625 0 L 43.546875 0 C 39.878906 0 36.914062 -0.84375 34.65625 -2.53125 C 32.40625 -4.226562 31.28125 -7.472656 31.28125 -12.265625 L 31.28125 -265.9375 C 31.28125 -269.882812 32.125 -272.914062 33.8125 -275.03125 C 35.507812 -277.144531 38.753906 -278.203125 43.546875 -278.203125 Z M 138.25 -139.515625 C 154.882812 -139.515625 166.9375 -143.460938 174.40625 -151.359375 C 181.875 -159.253906 185.609375 -168.414062 185.609375 -178.84375 C 185.609375 -189.832031 181.875 -199.203125 174.40625 -206.953125 C 166.9375 -214.710938 154.882812 -218.59375 138.25 -218.59375 L 97.671875 -218.59375 L 97.671875 -139.515625 Z M 138.25 -139.515625 "/></g></g></g><g clip-path="url(#9cb14f23cf)"><g clip-path="url(#bb9cb5a957)"><g clip-path="url(#14eb022ecc)"><path fill="#247ef5" d="M 92.789062 190.324219 C 88.210938 141.96875 123.765625 98.976562 172.121094 94.394531 L 168.582031 57.019531 C 99.53125 63.558594 48.875 124.816406 55.414062 193.863281 Z M 92.789062 190.324219 " fill-opacity="1" fill-rule="nonzero"/></g></g></g></svg>